<svg width="349" height="145" viewBox="0 0 349 145" fill="none" xmlns="http://www.w3.org/2000/svg">
<path d="M178.949 0C177.544 0 176.242 0.737214 175.519 1.94206L90.7751 143.186C90.5418 143.575 90.548 144.062 90.7912 144.445V144.445C91.011 144.79 91.3925 145 91.8023 145H130.978C132.354 145 133.633 144.293 134.365 143.129L220.469 6.1285C222.143 3.46468 220.229 0 217.083 0H178.949ZM48.8024 1.94009C48.0793 0.736361 46.7779 0 45.3736 0H7.22859C4.08441 0 2.16944 3.46062 3.83948 6.12461L79.4204 126.689C80.9904 129.193 84.6408 129.188 86.2042 126.68L104.023 98.0892C104.818 96.8142 104.831 95.2014 104.057 93.9136L48.8024 1.94009Z" fill="white"/>
<path d="M284.759 0.00578308C287.972 0.00578308 289.873 3.6016 288.065 6.25703L222.255 102.911C220.447 105.566 222.349 109.162 225.562 109.162H340.721C343.934 109.162 345.836 112.758 344.027 115.413L325.076 143.247C324.331 144.341 323.093 144.996 321.77 144.996H160.566C157.353 144.996 155.451 141.4 157.259 138.744L250.534 1.75453C251.279 0.660495 252.517 0.00578308 253.84 0.00578308H284.759Z" fill="white"/>
</svg>
